<?xml version="1.0" encoding="UTF-8" standalone="no"?>
<svg
   id="Calque_2"
   data-name="Calque 2"
   viewBox="0 0 47739.197 23294.021"
   version="1.1"
   sodipodi:docname="logo.svg"
   inkscape:version="1.2.2 (732a01da63, 2022-12-09)"
   width="47739.195"
   height="23294.021"
   xmlns:inkscape="http://www.inkscape.org/namespaces/inkscape"
   xmlns:sodipodi="http://sodipodi.sourceforge.net/DTD/sodipodi-0.dtd"
   xmlns="http://www.w3.org/2000/svg"
   xmlns:svg="http://www.w3.org/2000/svg">
  <sodipodi:namedview
     id="namedview34"
     pagecolor="#ffffff"
     bordercolor="#000000"
     borderopacity="0.25"
     inkscape:showpageshadow="2"
     inkscape:pageopacity="0.0"
     inkscape:pagecheckerboard="0"
     inkscape:deskcolor="#d1d1d1"
     showgrid="false"
     inkscape:zoom="1.1606267"
     inkscape:cx="132.25614"
     inkscape:cy="79.267521"
     inkscape:window-width="1366"
     inkscape:window-height="697"
     inkscape:window-x="-8"
     inkscape:window-y="-8"
     inkscape:window-maximized="1"
     inkscape:current-layer="g30" />
  <defs
     id="defs4">
    <inkscape:path-effect
       effect="fillet_chamfer"
       id="path-effect4448"
       is_visible="true"
       lpeversion="1"
       nodesatellites_param="F,0,0,1,0,17,0,1 @ F,0,0,1,0,17,0,1 @ F,0,0,1,0,17,0,1 @ F,0,0,1,0,17,0,1 | F,0,0,1,0,17,0,1 @ F,0,0,1,0,17,0,1 @ F,0,0,1,0,17,0,1 @ F,0,0,1,0,17,0,1 @ F,0,0,1,0,17,0,1 @ F,0,0,1,0,17,0,1 @ F,0,0,1,0,17,0,1 @ F,0,0,1,0,17,0,1 @ F,0,0,1,0,17,0,1 @ F,0,0,1,0,17,0,1 @ F,0,0,1,0,17,0,1 @ F,0,0,1,0,17,0,1 @ F,0,0,1,0,17,0,1 @ F,0,0,1,0,17,0,1 @ F,0,0,1,0,17,0,1 @ F,0,0,1,0,17,0,1 @ F,0,0,1,0,17,0,1 @ F,0,0,1,0,17,0,1 @ F,0,0,1,0,17,0,1 @ F,0,0,1,0,17,0,1 @ F,0,0,1,0,17,0,1 @ F,0,0,1,0,17,0,1 @ F,0,0,1,0,17,0,1 | F,0,0,1,0,17,0,1 @ F,0,0,1,0,17,0,1 @ F,0,0,1,0,17,0,1 @ F,0,0,1,0,17,0,1 @ F,0,0,1,0,17,0,1 @ F,0,0,1,0,17,0,1 @ F,0,0,1,0,17,0,1 @ F,0,0,1,0,17,0,1 @ F,0,0,1,0,17,0,1 @ F,0,0,1,0,17,0,1 @ F,0,0,1,0,17,0,1 @ F,0,0,1,0,17,0,1 @ F,0,0,1,0,17,0,1 @ F,0,0,1,0,17,0,1 @ F,0,0,1,0,17,0,1 @ F,0,0,1,0,17,0,1 @ F,0,0,1,0,17,0,1 @ F,0,0,1,0,17,0,1 @ F,0,0,1,0,17,0,1 @ F,0,0,1,0,17,0,1 @ F,0,0,1,0,17,0,1 @ F,0,0,1,0,17,0,1 @ F,0,0,1,0,17,0,1 | F,0,0,1,0,17,0,1 @ F,0,0,1,0,17,0,1 @ F,0,0,1,0,17,0,1 @ F,0,0,1,0,17,0,1 @ F,0,0,1,0,17,0,1 @ F,0,0,1,0,17,0,1 @ F,0,0,1,0,17,0,1 @ F,0,0,1,0,17,0,1 @ F,0,0,1,0,17,0,1 @ F,0,0,1,0,17,0,1 @ F,0,0,1,0,17,0,1 @ F,0,0,1,0,17,0,1 @ F,0,0,1,0,17,0,1 @ F,0,0,1,0,17,0,1 @ F,0,0,1,0,17,0,1 @ F,0,0,1,0,17,0,1 @ F,0,0,1,0,17,0,1 @ F,0,0,1,0,17,0,1 @ F,0,0,1,0,17,0,1 @ F,0,0,1,0,17,0,1 @ F,0,0,1,0,17,0,1 @ F,0,0,1,0,17,0,1 @ F,0,0,1,0,17,0,1 @ F,0,0,1,0,17,0,1 @ F,0,0,1,0,17,0,1 @ F,0,0,1,0,17,0,1 @ F,0,0,1,0,17,0,1 @ F,0,0,1,0,17,0,1 @ F,0,0,1,0,17,0,1 @ F,0,0,1,0,17,0,1 @ F,0,0,1,0,17,0,1 @ F,0,0,1,0,17,0,1 @ F,0,0,1,0,17,0,1 @ F,0,0,1,0,17,0,1 @ F,0,0,1,0,17,0,1 @ F,0,0,1,0,17,0,1 @ F,0,0,1,0,17,0,1 @ F,0,0,1,0,17,0,1 @ F,0,0,1,0,17,0,1 @ F,0,0,1,0,17,0,1 @ F,0,0,1,0,17,0,1 @ F,0,0,1,0,17,0,1 @ F,0,0,1,0,17,0,1 @ F,0,0,1,0,17,0,1 @ F,0,0,1,0,17,0,1 @ F,0,0,1,0,17,0,1 @ F,0,0,1,0,17,0,1 | F,0,0,1,0,17,0,1 @ F,0,0,1,0,17,0,1 @ F,0,0,1,0,17,0,1 @ F,0,0,1,0,17,0,1 @ F,0,0,1,0,17,0,1 @ F,0,0,1,0,17,0,1 @ F,0,0,1,0,17,0,1 @ F,0,0,1,0,17,0,1 @ F,0,0,1,0,17,0,1 @ F,0,0,1,0,17,0,1 @ F,0,0,1,0,17,0,1 @ F,0,0,1,0,17,0,1 @ F,0,0,1,0,17,0,1 @ F,0,0,1,0,17,0,1 @ F,0,0,1,0,17,0,1 @ F,0,0,1,0,17,0,1 @ F,0,0,1,0,17,0,1 @ F,0,0,1,0,17,0,1 @ F,0,0,1,0,17,0,1 @ F,0,0,1,0,17,0,1 @ F,0,0,1,0,17,0,1 @ F,0,0,1,0,17,0,1 @ F,0,0,1,0,17,0,1 @ F,0,0,1,0,17,0,1 @ F,0,0,1,0,17,0,1 @ F,0,0,1,0,17,0,1 @ F,0,0,1,0,17,0,1 @ F,0,0,1,0,17,0,1 @ F,0,0,1,0,17,0,1 @ F,0,0,1,0,17,0,1 @ F,0,0,1,0,17,0,1 @ F,0,0,1,0,17,0,1 @ F,0,0,1,0,17,0,1 @ F,0,0,1,0,17,0,1 @ F,0,0,1,0,17,0,1 @ F,0,0,1,0,17,0,1 @ F,0,0,1,0,17,0,1 @ F,0,0,1,0,17,0,1 @ F,0,0,1,0,17,0,1 @ F,0,0,1,0,17,0,1 @ F,0,0,1,0,17,0,1 @ F,0,0,1,0,17,0,1 @ F,0,0,1,0,17,0,1 @ F,0,0,1,0,17,0,1 @ F,0,0,1,0,17,0,1 @ F,0,0,1,0,17,0,1 @ F,0,0,1,0,17,0,1 @ F,0,0,1,0,17,0,1 @ F,0,0,1,0,17,0,1 @ F,0,0,1,0,17,0,1 @ F,0,0,1,0,17,0,1 @ F,0,0,1,0,17,0,1 @ F,0,0,1,0,17,0,1 @ F,0,0,1,0,17,0,1 @ F,0,0,1,0,17,0,1 @ F,0,0,1,0,17,0,1 @ F,0,0,1,0,17,0,1 @ F,0,0,1,0,17,0,1 @ F,0,0,1,0,17,0,1 @ F,0,0,1,0,17,0,1 @ F,0,0,1,0,17,0,1 @ F,0,0,1,0,17,0,1 @ F,0,0,1,0,17,0,1 @ F,0,0,1,0,17,0,1 @ F,0,0,1,0,17,0,1 @ F,0,0,1,0,17,0,1 @ F,0,0,1,0,17,0,1 @ F,0,0,1,0,17,0,1 | F,0,0,1,0,17,0,1 @ F,0,0,1,0,17,0,1 @ F,0,0,1,0,17,0,1 @ F,0,0,1,0,17,0,1 @ F,0,0,1,0,17,0,1 @ F,0,0,1,0,17,0,1 @ F,0,0,1,0,17,0,1 @ F,0,0,1,0,17,0,1 @ F,0,0,1,0,17,0,1 @ F,0,0,1,0,17,0,1 @ F,0,0,1,0,17,0,1 @ F,0,0,1,0,17,0,1 @ F,0,0,1,0,17,0,1 @ F,0,0,1,0,17,0,1 @ F,0,0,1,0,17,0,1 @ F,0,0,1,0,17,0,1 @ F,0,0,1,0,17,0,1 @ F,0,0,1,0,17,0,1 @ F,0,0,1,0,17,0,1 @ F,0,0,1,0,17,0,1 @ F,0,0,1,0,17,0,1 @ F,0,0,1,0,17,0,1 @ F,0,0,1,0,17,0,1 @ F,0,0,1,0,17,0,1 @ F,0,0,1,0,17,0,1 @ F,0,0,1,0,17,0,1 @ F,0,0,1,0,17,0,1 @ F,0,0,1,0,17,0,1 @ F,0,0,1,0,17,0,1 @ F,0,0,1,0,17,0,1 @ F,0,0,1,0,17,0,1 @ F,0,0,1,0,17,0,1 @ F,0,0,1,0,17,0,1 @ F,0,0,1,0,17,0,1 @ F,0,0,1,0,17,0,1 @ F,0,0,1,0,17,0,1 @ F,0,0,1,0,17,0,1 @ F,0,0,1,0,17,0,1 @ F,0,0,1,0,17,0,1 @ F,0,0,1,0,17,0,1 @ F,0,0,1,0,17,0,1 @ F,0,0,1,0,17,0,1 @ F,0,0,1,0,17,0,1 @ F,0,0,1,0,17,0,1 @ F,0,0,1,0,17,0,1 @ F,0,0,1,0,17,0,1 @ F,0,0,1,0,17,0,1 @ F,0,0,1,0,17,0,1 @ F,0,0,1,0,17,0,1 @ F,0,0,1,0,17,0,1 @ F,0,0,1,0,17,0,1 @ F,0,0,1,0,17,0,1 @ F,0,0,1,0,17,0,1 @ F,0,0,1,0,17,0,1 @ F,0,0,1,0,17,0,1 @ F,0,0,1,0,17,0,1 @ F,0,0,1,0,17,0,1 @ F,0,0,1,0,17,0,1 @ F,0,0,1,0,17,0,1 @ F,0,0,1,0,17,0,1 @ F,0,0,1,0,17,0,1 @ F,0,0,1,0,17,0,1 @ F,0,0,1,0,17,0,1 @ F,0,0,1,0,17,0,1 @ F,0,0,1,0,17,0,1 @ F,0,0,1,0,17,0,1 @ F,0,0,1,0,17,0,1 @ F,0,0,1,0,17,0,1 @ F,0,0,1,0,17,0,1"
       unit="px"
       method="auto"
       mode="F"
       radius="17"
       chamfer_steps="1"
       flexible="false"
       use_knot_distance="true"
       apply_no_radius="true"
       apply_with_radius="true"
       only_selected="false"
       hide_knots="false" />
    <style
       id="style2">
      .cls-1 {
        fill: #0070c0;
        font-family: BernardMT-Condensed, 'Bernard MT Condensed';
        font-size: 106.51px;
      }

      .cls-2 {
        font-family: Chillax-Regular, Chillax;
        font-size: 85px;
        letter-spacing: -.08em;
      }

      .cls-3 {
        fill: #fff;
        stroke: #000;
        stroke-miterlimit: 10;
      }
    </style>
  </defs>
  <g
     id="Calque_1-2"
     data-name="Calque 1"
     transform="translate(-693.97996,-754.53964)">
    <g
       id="g30">
      <g
         id="g20"
         transform="matrix(0.93915631,0,0,0.93915631,2,4.7910317)">
        <path
           id="path1029"
           style="fill:#01489a;fill-opacity:1;stroke:none;stroke-width:1.38291"
           d="m 0,17 v 123.49023 a 17,17 45 0 0 17,17 h 112.49414 a 17,17 135 0 0 17,-17 V 17 a 17,17 45 0 0 -17,-17 H 17 A 17,17 135 0 0 0,17 Z m 43.923828,18.851565 c 1.0625,0.25586 1.0625,0.25586 1.0625,0.25586 1.009766,0.417969 1.009766,0.417969 1.009766,0.417969 0.93164,0.570312 0.93164,0.570312 0.93164,0.570312 0.830078,0.710938 0.830078,0.710938 0.830078,0.710938 0.710938,0.830078 0.710938,0.830078 0.710938,0.830078 0.570312,0.93164 0.570312,0.93164 0.570312,0.93164 0.417969,1.009766 0.417969,1.009766 0.417969,1.009766 0.25586,1.0625 0.25586,1.0625 0.25586,1.0625 0.08594,1.089844 0.08594,1.089844 0.08594,1.089844 -0.53125,2.664062 -0.53125,2.664062 -0.53125,2.664062 -1.509766,2.259766 -1.509766,2.259766 -1.509766,2.259766 -2.257812,1.509765 -2.257812,1.509765 -2.257812,1.509765 -2.666016,0.529297 -2.666016,0.529297 -2.666016,0.529297 C 40.169925,49.164065 40.169925,49.164065 40.169925,49.164065 37.910159,47.6543 37.910159,47.6543 37.910159,47.6543 c -1.509765,-2.259766 -1.509765,-2.259766 -1.509765,-2.259766 -0.529297,-2.664062 -0.529297,-2.664062 -0.529297,-2.664062 0.529297,-2.666016 0.529297,-2.666016 0.529297,-2.666016 1.509765,-2.257812 1.509765,-2.257812 1.509765,-2.257812 2.259766,-1.509766 2.259766,-1.509766 2.259766,-1.509766 2.664062,-0.53125 2.664062,-0.53125 2.664062,-0.53125 l -3e-6,-3e-6 z m 64.203122,0 c 1.0625,0.25586 1.0625,0.25586 1.0625,0.25586 1.00977,0.417969 1.00977,0.417969 1.00977,0.417969 0.93164,0.570312 0.93164,0.570312 0.93164,0.570312 0.83008,0.710938 0.83008,0.710938 0.83008,0.710938 0.71094,0.830078 0.71094,0.830078 0.71094,0.830078 0.57031,0.93164 0.57031,0.93164 0.57031,0.93164 0.41797,1.009766 0.41797,1.009766 0.41797,1.009766 0.25586,1.0625 0.25586,1.0625 0.25586,1.0625 0.0859,1.089844 0.0859,1.089844 0.0859,1.089844 -0.53125,2.664062 -0.53125,2.664062 -0.53125,2.664062 -1.50976,2.259766 -1.50976,2.259766 -1.50976,2.259766 -2.25782,1.509765 -2.25782,1.509765 -2.25782,1.509765 -2.66601,0.529297 -2.66601,0.529297 -2.66601,0.529297 -2.66406,-0.529297 -2.66406,-0.529297 -2.66406,-0.529297 -2.25977,-1.509765 -2.25977,-1.509765 -2.25977,-1.509765 -1.50976,-2.259766 -1.50976,-2.259766 -1.50976,-2.259766 -0.5293,-2.664062 -0.5293,-2.664062 -0.5293,-2.664062 0.5293,-2.666016 0.5293,-2.666016 0.5293,-2.666016 1.50976,-2.257812 1.50976,-2.257812 1.50976,-2.257812 2.25977,-1.509766 2.25977,-1.509766 2.25977,-1.509766 2.66406,-0.53125 2.66406,-0.53125 2.66406,-0.53125 l 3e-5,-3e-6 z m -35.212888,7.720697 c 0.699219,0.375 0.699219,0.375 0.699219,0.375 0.732422,0.757812 0.732422,0.757812 0.732422,0.757812 0.746094,1.119141 0.746094,1.119141 0.746094,1.119141 0.744141,1.453125 0.744141,1.453125 0.744141,1.453125 0.726562,1.761718 0.726562,1.761718 0.726562,1.761718 0.691406,2.044922 0.691406,2.044922 0.691406,2.044922 0.642578,2.302735 0.642578,2.302735 0.642578,2.302735 0.572266,2.535156 0.572266,2.535156 0.572266,2.535156 0.490234,2.742187 0.490234,2.742187 0.490234,2.742187 0.390625,2.923829 0.390625,2.923829 0.390625,2.923829 0.273438,3.080078 0.273438,3.080078 0.273438,3.080078 0.140625,3.208984 0.140625,3.208984 0.140625,3.208984 -0.0078,3.314453 -0.0078,3.314453 -0.0078,3.314453 -0.175781,3.392578 -0.175781,3.392578 -0.175781,3.392578 -0.355469,3.447266 -0.355469,3.447266 -0.355469,3.447266 -1.162109,9.509766 -1.162109,9.509766 -1.162109,9.509766 -1.074219,9.716796 -1.074219,9.716796 -1.074219,9.716796 -1.833425,17.572812 -2.229182,21.438452 -2.71289,25.535162 -0.746094,5.69141 -0.746094,5.69141 -0.746094,5.69141 -0.669922,3.47265 -0.669922,3.47265 -0.669922,3.47265 -0.308594,0.75391 -0.308594,0.75391 -0.308594,0.75391 -0.146484,0.10351 -0.146484,0.10351 -0.146484,0.10351 -0.142578,-0.0879 -0.142578,-0.0879 -0.142578,-0.0879 v -0.006 c -0.220703,-0.51562 -0.220703,-0.51562 -0.220703,-0.51562 -0.242188,-0.97852 -0.242188,-0.97852 -0.242188,-0.97852 -0.544922,-3.21094 -0.544922,-3.21094 -0.544922,-3.21094 -1.271484,-10.46484 -1.271484,-10.46484 -1.271484,-10.46484 -1.386719,-14.01758 -1.386719,-14.01758 -1.386719,-14.01758 -1.357422,-15.361329 -1.357422,-15.361329 -1.357422,-15.361329 -0.298828,-4.263672 -0.298828,-4.263672 -0.298828,-4.263672 -0.173828,-4.179687 -0.173828,-4.179687 -0.173828,-4.179687 -0.05859,-4.070313 -0.05859,-4.070313 -0.05859,-4.070313 0.04687,-3.9375 0.04687,-3.9375 0.04687,-3.9375 0.376953,-7.380859 0.376953,-7.380859 0.376953,-7.380859 0.691407,-6.560547 0.691407,-6.560547 0.691407,-6.560547 0.93164,-5.544922 0.93164,-5.544922 0.93164,-5.544922 0.533203,-2.333984 0.533203,-2.333984 0.533203,-2.333984 0.566407,-2.00586 0.566407,-2.00586 0.566407,-2.00586 0.589843,-1.65625 0.589843,-1.65625 0.589843,-1.65625 0.603516,-1.283203 0.603516,-1.283203 0.603516,-1.283203 0.609375,-0.882812 0.609375,-0.882812 0.609375,-0.882812 0.605469,-0.462891 0.605469,-0.462891 0.605469,-0.462891 0.318359,-0.07031 0.318359,-0.07031 0.318359,-0.07031 l -1.2e-5,1.51e-4 z m -27.707031,10.22461 c 1.023438,0.369141 1.023438,0.369141 1.023438,0.369141 1.232422,0.751953 1.232422,0.751953 1.232422,0.751953 1.398437,1.109375 1.398437,1.109375 1.398437,1.109375 1.513672,1.441406 1.513672,1.441406 1.513672,1.441406 1.585938,1.75 1.585938,1.75 1.585938,1.75 1.609374,2.03125 1.609374,2.03125 1.609374,2.03125 1.589844,2.289062 1.589844,2.289062 1.589844,2.289062 1.523438,2.521485 1.523438,2.521485 1.523438,2.521485 1.408203,2.728515 1.408203,2.728515 1.408203,2.728515 1.25,2.91211 1.25,2.91211 1.25,2.91211 1.042969,3.068359 1.042969,3.068359 1.042969,3.068359 0.791015,3.199219 0.791015,3.199219 0.791015,3.199219 0.492188,3.306641 0.492188,3.306641 0.492188,3.306641 0.148437,3.388671 0.148437,3.388671 0.148437,3.388671 -0.242187,3.445313 -0.242187,3.445313 -0.242187,3.445313 -0.390625,2.273437 -0.390625,2.273437 -0.390625,2.273437 -0.5625,2.197266 -0.5625,2.197266 -0.5625,2.197266 -0.720703,2.119141 -0.720703,2.119141 -0.720703,2.119141 -0.869141,2.042969 -0.869141,2.042969 -0.869141,2.042969 -1.003906,1.966796 -1.003906,1.966796 -1.003906,1.966796 -1.126953,1.888679 -1.126953,1.888679 -1.126953,1.888679 -1.240235,1.8125 -1.240235,1.8125 -1.240235,1.8125 -1.341797,1.73437 -1.341797,1.73437 -1.341797,1.73437 -1.429687,1.6582 -1.429687,1.6582 -1.429687,1.6582 -1.50586,1.58008 -1.50586,1.58008 -1.50586,1.58008 -3.197265,2.92969 -3.197265,2.92969 -3.197265,2.92969 -3.363281,2.61719 -3.363281,2.61719 -3.363281,2.61719 -3.439454,2.30664 -3.439454,2.30664 -3.439454,2.30664 -3.417968,1.99414 -3.417968,1.99414 -3.417968,1.99414 -3.302735,1.68164 -3.302735,1.68164 -3.302735,1.68164 -3.097656,1.36719 -3.097656,1.36719 -3.097656,1.36719 -2.794922,1.05273 -2.794922,1.05273 -2.794922,1.05273 -2.398437,0.73828 -2.398437,0.73828 -2.398437,0.73828 -1.910156,0.42188 -1.910156,0.42188 -1.910156,0.42188 -1.328126,0.10351 -1.328126,0.10351 -1.328126,0.10351 -0.416015,-0.0664 -0.416015,-0.0664 -0.416015,-0.0664 -0.236328,-0.14649 -0.236328,-0.14649 -0.236328,-0.14649 0.002,-0.34961 0.002,-0.34961 0.002,-0.34961 0.388672,-0.51172 0.388672,-0.51172 0.388672,-0.51172 1.761718,-1.53515 1.761718,-1.53515 1.761718,-1.53515 2.796876,-2.26367 2.796876,-2.26367 2.796876,-2.26367 3.486328,-3.05078 3.486328,-3.05078 3.486328,-3.05078 1.898437,-1.8379 1.898437,-1.8379 1.898437,-1.8379 1.941406,-2.05664 1.941406,-2.05664 1.941406,-2.05664 1.945313,-2.27929 1.945313,-2.27929 1.945313,-2.27929 1.90625,-2.51367 1.90625,-2.51367 1.90625,-2.51367 1.822266,-2.75196 1.822266,-2.75196 1.822266,-2.75196 1.699218,-3 1.699218,-3 1.699218,-3 1.529297,-3.251954 1.529297,-3.251954 1.529297,-3.251954 1.320313,-3.513672 1.320313,-3.513672 1.320313,-3.513672 1.076172,-3.828125 1.076172,-3.828125 1.076172,-3.828125 0.714843,-3.740234 0.714843,-3.740234 0.714843,-3.740234 0.400391,-3.632813 0.400391,-3.632813 0.400391,-3.632813 0.132812,-3.505859 0.132812,-3.505859 0.132812,-3.505859 -0.0918,-3.357422 -0.0918,-3.357422 -0.0918,-3.357422 -0.267579,-3.191406 -0.267579,-3.191406 -0.267579,-3.191406 -0.402343,-3.00586 -0.402343,-3.00586 -0.402343,-3.00586 -0.490235,-2.798828 -0.490235,-2.798828 -0.490235,-2.798828 -1.058593,-4.898438 -1.058593,-4.898438 -1.058593,-4.898438 -0.863282,-3.833984 -0.863282,-3.833984 -0.863282,-3.833984 -0.246094,-1.466797 -0.246094,-1.466797 -0.246094,-1.466797 -0.05859,-1.142578 -0.05859,-1.142578 -0.05859,-1.142578 0.169922,-0.796875 0.169922,-0.796875 0.169922,-0.796875 0.185547,-0.263672 0.185547,-0.263672 0.185547,-0.263672 0.261718,-0.167968 0.261718,-0.167968 0.261718,-0.167968 0.347656,-0.07227 0.347656,-0.07227 0.347656,-0.07227 l -4.6e-5,7e-6 z m 56.830079,0.03907 c 0.25977,0.167968 0.25977,0.167968 0.25977,0.167968 0.18554,0.263672 0.18554,0.263672 0.18554,0.263672 0.17188,0.796875 0.17188,0.796875 0.17188,0.796875 -0.0606,1.142578 -0.0606,1.142578 -0.0606,1.142578 -0.24414,1.466797 -0.24414,1.466797 -0.24414,1.466797 -0.86328,3.833984 -0.86328,3.833984 -0.86328,3.833984 -1.06055,4.898438 -1.06055,4.898438 -1.06055,4.898438 -0.48828,2.798828 -0.48828,2.798828 -0.48828,2.798828 -0.402344,3.00586 -0.402344,3.00586 -0.402344,3.00586 -0.269531,3.191406 -0.269531,3.191406 -0.269531,3.191406 -0.0918,3.357422 -0.0918,3.357422 -0.0918,3.357422 0.132813,3.505859 0.132813,3.505859 0.132813,3.505859 0.40039,3.632813 0.40039,3.632813 0.40039,3.632813 0.716802,3.740234 0.716802,3.740234 0.716802,3.740234 1.07422,3.828125 1.07422,3.828125 1.07422,3.828125 1.32031,3.513672 1.32031,3.513672 1.32031,3.513672 1.5293,3.251947 1.5293,3.251947 1.5293,3.251947 1.69726,3 1.69726,3 1.69726,3 1.82227,2.75196 1.82227,2.75196 1.82227,2.75196 1.90429,2.51367 1.90429,2.51367 1.90429,2.51367 1.94532,2.27929 1.94532,2.27929 1.94532,2.27929 1.94336,2.05664 1.94336,2.05664 1.94336,2.05664 1.89648,1.8379 1.89648,1.8379 1.89648,1.8379 3.48828,3.05078 3.48828,3.05078 3.48828,3.05078 2.79492,2.26367 2.79492,2.26367 2.79492,2.26367 1.76172,1.53515 1.76172,1.53515 1.76172,1.53515 0.38672,0.51172 0.38672,0.51172 0.38672,0.51172 0,0.34961 0,0.34961 0,0.34961 h 0.008 c -0.23437,0.14649 -0.23437,0.14649 -0.23437,0.14649 -0.41602,0.0664 -0.41602,0.0664 -0.41602,0.0664 -1.32812,-0.10351 -1.32812,-0.10351 -1.32812,-0.10351 -1.91016,-0.42188 -1.91016,-0.42188 -1.91016,-0.42188 -2.40039,-0.73828 -2.40039,-0.73828 -2.40039,-0.73828 -2.79492,-1.05273 -2.79492,-1.05273 -2.79492,-1.05273 -3.0957,-1.36719 -3.0957,-1.36719 -3.0957,-1.36719 -3.30469,-1.68164 -3.30469,-1.68164 -3.30469,-1.68164 -3.41797,-1.99414 -3.41797,-1.99414 -3.41797,-1.99414 -3.4375,-2.30664 -3.4375,-2.30664 -3.4375,-2.30664 -3.365237,-2.61719 -3.365237,-2.61719 -3.365237,-2.61719 -3.197266,-2.92969 -3.197266,-2.92969 -3.197266,-2.92969 -1.505859,-1.58008 -1.505859,-1.58008 -1.505859,-1.58008 -1.429688,-1.6582 -1.429688,-1.6582 -1.429688,-1.6582 -1.339844,-1.73437 -1.339844,-1.73437 -1.339844,-1.73437 -1.240234,-1.8125 -1.240234,-1.8125 -1.240234,-1.8125 -1.128906,-1.888672 -1.128906,-1.888672 -1.128906,-1.888672 -1.003907,-1.966796 -1.003907,-1.966796 -1.003907,-1.966796 -0.867187,-2.042969 -0.867187,-2.042969 -0.867187,-2.042969 -0.722656,-2.119141 -0.722656,-2.119141 -0.722656,-2.119141 -0.560547,-2.197266 -0.560547,-2.197266 -0.560547,-2.197266 -0.392578,-2.273437 -0.392578,-2.273437 -0.392578,-2.273437 -0.242188,-3.445313 -0.242188,-3.445313 -0.242188,-3.445313 0.148438,-3.388671 0.148438,-3.388671 0.148438,-3.388671 0.49414,-3.306641 0.49414,-3.306641 0.49414,-3.306641 0.791016,-3.199219 0.791016,-3.199219 0.791016,-3.199219 1.042969,-3.068359 1.042969,-3.068359 1.042969,-3.068359 1.248047,-2.91211 1.248047,-2.91211 1.248047,-2.91211 1.410156,-2.728515 1.410156,-2.728515 1.410156,-2.728515 1.521484,-2.521485 1.521484,-2.521485 1.521484,-2.521485 1.589844,-2.289062 1.589844,-2.289062 1.589844,-2.289062 1.611328,-2.03125 1.611328,-2.03125 1.611328,-2.03125 1.585938,-1.75 1.585938,-1.75 1.585938,-1.75 1.513672,-1.441406 1.513672,-1.441406 1.513672,-1.441406 1.396484,-1.109375 1.396484,-1.109375 1.396484,-1.109375 1.232421,-0.751953 1.232421,-0.751953 1.232421,-0.751953 1.02344,-0.369141 1.02344,-0.369141 1.02344,-0.369141 0.41797,-0.0332 0.41797,-0.0332 0.41797,-0.0332 l -1.4e-4,-7e-6 z"
           inkscape:path-effect="#path-effect4448"
           inkscape:original-d="M 0,0 V 157.49023 H 146.49414 V 0 Z m 42.833984,35.765625 a 6.9636922,6.9636922 0 0 1 1.089844,0.08594 6.9636922,6.9636922 0 0 1 1.0625,0.25586 6.9636922,6.9636922 0 0 1 1.009766,0.417969 6.9636922,6.9636922 0 0 1 0.93164,0.570312 6.9636922,6.9636922 0 0 1 0.830078,0.710938 6.9636922,6.9636922 0 0 1 0.710938,0.830078 6.9636922,6.9636922 0 0 1 0.570312,0.93164 6.9636922,6.9636922 0 0 1 0.417969,1.009766 6.9636922,6.9636922 0 0 1 0.25586,1.0625 6.9636922,6.9636922 0 0 1 0.08594,1.089844 6.9636922,6.9636922 0 0 1 -0.53125,2.664062 6.9636922,6.9636922 0 0 1 -1.509766,2.259766 6.9636922,6.9636922 0 0 1 -2.257812,1.509765 6.9636922,6.9636922 0 0 1 -2.666016,0.529297 6.9636922,6.9636922 0 0 1 -2.664062,-0.529297 6.9636922,6.9636922 0 0 1 -2.259766,-1.509765 6.9636922,6.9636922 0 0 1 -1.509765,-2.259766 6.9636922,6.9636922 0 0 1 -0.529297,-2.664062 6.9636922,6.9636922 0 0 1 0.529297,-2.666016 6.9636922,6.9636922 0 0 1 1.509765,-2.257812 6.9636922,6.9636922 0 0 1 2.259766,-1.509766 6.9636922,6.9636922 0 0 1 2.664062,-0.53125 z m 64.203126,0 a 6.9636922,6.9636922 0 0 1 1.08984,0.08594 6.9636922,6.9636922 0 0 1 1.0625,0.25586 6.9636922,6.9636922 0 0 1 1.00977,0.417969 6.9636922,6.9636922 0 0 1 0.93164,0.570312 6.9636922,6.9636922 0 0 1 0.83008,0.710938 6.9636922,6.9636922 0 0 1 0.71094,0.830078 6.9636922,6.9636922 0 0 1 0.57031,0.93164 6.9636922,6.9636922 0 0 1 0.41797,1.009766 6.9636922,6.9636922 0 0 1 0.25586,1.0625 6.9636922,6.9636922 0 0 1 0.0859,1.089844 6.9636922,6.9636922 0 0 1 -0.53125,2.664062 6.9636922,6.9636922 0 0 1 -1.50976,2.259766 6.9636922,6.9636922 0 0 1 -2.25782,1.509765 6.9636922,6.9636922 0 0 1 -2.66601,0.529297 6.9636922,6.9636922 0 0 1 -2.66406,-0.529297 6.9636922,6.9636922 0 0 1 -2.25977,-1.509765 6.9636922,6.9636922 0 0 1 -1.50976,-2.259766 6.9636922,6.9636922 0 0 1 -0.5293,-2.664062 6.9636922,6.9636922 0 0 1 0.5293,-2.666016 6.9636922,6.9636922 0 0 1 1.50976,-2.257812 6.9636922,6.9636922 0 0 1 2.25977,-1.509766 6.9636922,6.9636922 0 0 1 2.66406,-0.53125 z m -34.457032,7.773437 c 0.108889,-0.0061 0.220791,0.0045 0.333984,0.0332 0.226394,0.05741 0.459695,0.184873 0.699219,0.375 0.239524,0.190123 0.485238,0.443473 0.732422,0.757812 0.247184,0.31434 0.49672,0.689094 0.746094,1.119141 0.249373,0.430043 0.498048,0.915877 0.744141,1.453125 0.246089,0.537244 0.489221,1.125778 0.726562,1.761718 0.237341,0.635944 0.468287,1.318792 0.691406,2.044922 0.22312,0.726133 0.439154,1.494921 0.642578,2.302735 0.203428,0.807814 0.394001,1.654163 0.572266,2.535156 0.178265,0.880993 0.342605,1.796522 0.490234,2.742187 0.147633,0.945669 0.279096,1.921996 0.390625,2.923829 0.11153,1.001832 0.203482,2.030584 0.273438,3.080078 0.06996,1.049493 0.117713,2.120335 0.140625,3.208984 0.02291,1.088649 0.02179,2.195154 -0.0078,3.314453 -0.0296,1.119299 -0.08819,2.251138 -0.175781,3.392578 -0.08759,1.141444 -0.204426,2.292184 -0.355469,3.447266 -0.402486,3.081963 -0.789713,6.278342 -1.162109,9.509766 -0.372396,3.23142 -0.730989,6.497545 -1.074219,9.716796 -0.686456,6.438502 -1.315265,12.691282 -1.890625,18.111332 -0.287677,2.71004 -0.560972,5.21084 -0.822265,7.42383 -0.261297,2.21298 -0.510253,4.1371 -0.746094,5.69141 -0.235841,1.55427 -0.458609,2.73866 -0.669922,3.47265 -0.105656,0.36699 -0.208896,0.6223 -0.308594,0.75391 -0.04985,0.0658 -0.0981,0.10034 -0.146484,0.10351 -0.04838,0.003 -0.09565,-0.0259 -0.142578,-0.0879 v -0.006 c -0.06897,-0.0908 -0.143598,-0.26458 -0.220703,-0.51562 -0.07711,-0.25105 -0.157711,-0.57873 -0.242188,-0.97852 -0.168954,-0.79958 -0.351043,-1.88538 -0.544922,-3.21094 -0.387753,-2.65107 -0.820541,-6.26183 -1.271484,-10.46484 -0.450946,-4.20298 -0.921258,-8.99868 -1.386719,-14.01758 -0.465458,-5.018876 -0.92612,-10.262558 -1.357422,-15.361329 -0.121358,-1.432721 -0.22052,-2.855109 -0.298828,-4.263672 -0.07831,-1.40856 -0.135508,-2.803331 -0.173828,-4.179687 -0.03832,-1.37636 -0.0572,-2.734202 -0.05859,-4.070313 -0.0014,-1.336111 0.01441,-2.649683 0.04687,-3.9375 0.06494,-2.575631 0.194946,-5.046676 0.376953,-7.380859 0.18201,-2.334187 0.416823,-4.53217 0.691407,-6.560547 0.27458,-2.028377 0.588987,-3.886717 0.93164,-5.544922 0.171329,-0.829102 0.349454,-1.609493 0.533203,-2.333984 0.183753,-0.724495 0.373292,-1.394022 0.566407,-2.00586 0.193111,-0.611835 0.390433,-1.165113 0.589843,-1.65625 0.199414,-0.491133 0.400866,-0.920813 0.603516,-1.283203 0.20265,-0.362389 0.406551,-0.657218 0.609375,-0.882812 0.202824,-0.225598 0.405533,-0.382131 0.605469,-0.462891 0.103896,-0.04191 0.209471,-0.06424 0.318359,-0.07031 z m -27.791016,10.22461 c 0.128131,-0.0063 0.26753,0.005 0.417969,0.0332 0.300879,0.05633 0.644876,0.181019 1.023438,0.369141 0.378558,0.188117 0.791578,0.440406 1.232422,0.751953 0.44084,0.311542 0.910717,0.682766 1.398437,1.109375 0.487724,0.426604 0.994473,0.908101 1.513672,1.441406 0.519199,0.533305 1.050658,1.118358 1.585938,1.75 0.535275,0.631642 1.073423,1.309633 1.609374,2.03125 0.535956,0.721617 1.06862,1.485833 1.589844,2.289062 0.521229,0.803234 1.032337,1.645005 1.523438,2.521485 0.491096,0.876479 0.962632,1.787148 1.408203,2.728515 0.445567,0.941372 0.86536,1.914218 1.25,2.91211 0.384635,0.997892 0.734662,2.022304 1.042969,3.068359 0.308302,1.046055 0.574444,2.113364 0.791015,3.199219 0.216572,1.085855 0.382753,2.189348 0.492188,3.306641 0.109435,1.117292 0.16154,2.248308 0.148437,3.388671 -0.0131,1.140368 -0.09114,2.290232 -0.242187,3.445313 -0.100623,0.770489 -0.231114,1.528461 -0.390625,2.273437 -0.159512,0.744981 -0.348007,1.477835 -0.5625,2.197266 -0.214493,0.719431 -0.455141,1.425283 -0.720703,2.119141 -0.265567,0.693853 -0.556408,1.374721 -0.869141,2.042969 -0.312733,0.668243 -0.647918,1.324196 -1.003906,1.966796 -0.355992,0.642605 -0.731614,1.27173 -1.126953,1.888679 -0.395344,0.61693 -0.809448,1.22127 -1.240235,1.8125 -0.430783,0.59122 -0.879474,1.16889 -1.341797,1.73437 -0.462319,0.56548 -0.939739,1.11849 -1.429687,1.6582 -0.489952,0.53972 -0.992187,1.06618 -1.50586,1.58008 -1.027337,1.02782 -2.098484,2.00529 -3.197265,2.92969 -1.098781,0.9244 -2.224326,1.79646 -3.363281,2.61719 -1.13896,0.82073 -2.291576,1.58984 -3.439454,2.30664 -1.147873,0.7168 -2.292432,1.38153 -3.417968,1.99414 -1.125536,0.61261 -2.230801,1.17348 -3.302735,1.68164 -1.071933,0.50816 -2.110585,0.96374 -3.097656,1.36719 -0.987071,0.40345 -1.923974,0.75425 -2.794922,1.05273 -0.870948,0.29849 -1.674873,0.54503 -2.398437,0.73828 -0.723569,0.19326 -1.365236,0.33411 -1.910156,0.42188 -0.544925,0.0878 -0.993105,0.12149 -1.328126,0.10351 -0.167506,-0.009 -0.306842,-0.0309 -0.416015,-0.0664 -0.109173,-0.0355 -0.1894,-0.0845 -0.236328,-0.14649 -0.06854,-0.0908 -0.06527,-0.20633 0.002,-0.34961 0.06722,-0.14328 0.199882,-0.31358 0.388672,-0.51172 0.377575,-0.39626 0.983044,-0.90522 1.761718,-1.53515 0.778679,-0.62993 1.730658,-1.3811 2.796876,-2.26367 1.066213,-0.88258 2.246122,-1.89661 3.486328,-3.05078 0.620101,-0.57711 1.256131,-1.18932 1.898437,-1.8379 0.642307,-0.64853 1.291089,-1.33422 1.941406,-2.05664 0.650322,-0.72242 1.301178,-1.48066 1.945313,-2.27929 0.644134,-0.79864 1.282489,-1.63649 1.90625,-2.51367 0.623757,-0.87723 1.233076,-1.79377 1.822266,-2.75196 0.589185,-0.95819 1.158799,-1.95847 1.699218,-3 0.540423,-1.041519 1.051839,-2.124717 1.529297,-3.251954 0.477462,-1.127238 0.920005,-2.298349 1.320313,-3.513672 0.423439,-1.288226 0.780214,-2.565744 1.076172,-3.828125 0.295953,-1.262381 0.531237,-2.510318 0.714843,-3.740234 0.183606,-1.229921 0.314,-2.44197 0.400391,-3.632813 0.08639,-1.190843 0.128502,-2.360714 0.132812,-3.505859 0.0043,-1.14515 -0.02917,-2.264583 -0.0918,-3.357422 -0.06263,-1.09284 -0.153137,-2.157497 -0.267579,-3.191406 -0.114441,-1.033914 -0.251233,-2.037489 -0.402343,-3.00586 -0.151115,-0.968371 -0.317583,-1.902616 -0.490235,-2.798828 -0.345299,-1.792425 -0.71796,-3.434341 -1.058593,-4.898438 -0.340638,-1.464092 -0.648395,-2.751151 -0.863282,-3.833984 -0.107443,-0.541415 -0.192791,-1.030618 -0.246094,-1.466797 -0.0533,-0.436174 -0.07457,-0.818256 -0.05859,-1.142578 0.01597,-0.324322 0.06953,-0.591026 0.169922,-0.796875 0.05019,-0.102924 0.111412,-0.191606 0.185547,-0.263672 0.07413,-0.07207 0.161751,-0.127593 0.261718,-0.167968 0.103897,-0.04191 0.21953,-0.06592 0.347656,-0.07227 z m 56.898438,0 c 0.12813,0.0063 0.24571,0.03036 0.34961,0.07227 0.1,0.04038 0.18563,0.0959 0.25977,0.167968 0.0741,0.07207 0.13535,0.160748 0.18554,0.263672 0.10039,0.205849 0.1559,0.472553 0.17188,0.796875 0.016,0.324322 -0.007,0.706402 -0.0606,1.142578 -0.0533,0.436179 -0.1367,0.92538 -0.24414,1.466797 -0.21489,1.082835 -0.52264,2.369888 -0.86328,3.833984 -0.34064,1.464099 -0.71525,3.106009 -1.06055,4.898438 -0.17265,0.896214 -0.33717,1.830455 -0.48828,2.798828 -0.151115,0.968373 -0.287902,1.971944 -0.402344,3.00586 -0.114442,1.033913 -0.206898,2.098564 -0.269531,3.191406 -0.06263,1.092841 -0.09611,2.21227 -0.0918,3.357422 0.0043,1.145149 0.04642,2.315014 0.132813,3.505859 0.08639,1.190845 0.216784,2.402891 0.40039,3.632813 0.183606,1.229919 0.420842,2.477851 0.716802,3.740234 0.29596,1.262383 0.65077,2.539898 1.07422,3.828125 0.39987,1.215325 0.84318,2.386432 1.32031,3.513672 0.47713,1.127239 0.98912,2.210429 1.5293,3.251947 0.54017,1.04153 1.10824,2.04181 1.69726,3 0.58902,0.95819 1.19862,1.87473 1.82227,2.75196 0.62365,0.8772 1.26024,1.71503 1.90429,2.51367 0.64408,0.79863 1.29502,1.55687 1.94532,2.27929 0.65029,0.72242 1.30105,1.40809 1.94336,2.05664 0.6423,0.64858 1.27638,1.26079 1.89648,1.8379 1.24021,1.15419 2.42212,2.1682 3.48828,3.05078 1.06617,0.88257 2.01646,1.63374 2.79492,2.26367 0.77846,0.62993 1.38463,1.13889 1.76172,1.53515 0.18855,0.19814 0.31983,0.36844 0.38672,0.51172 0.0669,0.14328 0.069,0.25881 0,0.34961 h 0.008 c -0.0469,0.062 -0.1252,0.11102 -0.23437,0.14649 -0.10917,0.0355 -0.24851,0.0574 -0.41602,0.0664 -0.33502,0.018 -0.7832,-0.0157 -1.32812,-0.10351 -0.54493,-0.0878 -1.18659,-0.22862 -1.91016,-0.42188 -0.72357,-0.19325 -1.52944,-0.43979 -2.40039,-0.73828 -0.87095,-0.29848 -1.80785,-0.64928 -2.79492,-1.05273 -0.98708,-0.40345 -2.02377,-0.85903 -3.0957,-1.36719 -1.07194,-0.50816 -2.17915,-1.06903 -3.30469,-1.68164 -1.12554,-0.61261 -2.27009,-1.27734 -3.41797,-1.99414 -1.14788,-0.7168 -2.29854,-1.48591 -3.4375,-2.30664 -1.13896,-0.82073 -2.266455,-1.69279 -3.365237,-2.61719 -1.098783,-0.9244 -2.169922,-1.90187 -3.197266,-2.92969 -0.513671,-0.5139 -1.01591,-1.04036 -1.505859,-1.58008 -0.489952,-0.53971 -0.967365,-1.09272 -1.429688,-1.6582 -0.462321,-0.56548 -0.909057,-1.14315 -1.339844,-1.73437 -0.430785,-0.59123 -0.844891,-1.19557 -1.240234,-1.8125 -0.395343,-0.616936 -0.772916,-1.246067 -1.128906,-1.888672 -0.355992,-0.642602 -0.691173,-1.298551 -1.003907,-1.966796 -0.312731,-0.668248 -0.60162,-1.349114 -0.867187,-2.042969 -0.265567,-0.693858 -0.508163,-1.399708 -0.722656,-2.119141 -0.214493,-0.719433 -0.401036,-1.452285 -0.560547,-2.197266 -0.159512,-0.744978 -0.291956,-1.502946 -0.392578,-2.273437 -0.151043,-1.155083 -0.229085,-2.304943 -0.242188,-3.445313 -0.0131,-1.140367 0.039,-2.271377 0.148438,-3.388671 0.109435,-1.117295 0.277571,-2.220784 0.49414,-3.306641 0.216572,-1.085857 0.48271,-2.153162 0.791016,-3.199219 0.308306,-1.046057 0.658329,-2.070465 1.042969,-3.068359 0.384637,-0.997894 0.802476,-1.970738 1.248047,-2.91211 0.445568,-0.941369 0.919055,-1.852034 1.410156,-2.728515 0.491098,-0.876482 1.000258,-1.718251 1.521484,-2.521485 0.521229,-0.803231 1.053891,-1.567443 1.589844,-2.289062 0.535953,-0.721619 1.07605,-1.399606 1.611328,-2.03125 0.53528,-0.631644 1.066735,-1.216693 1.585938,-1.75 0.519201,-0.533307 1.025947,-1.0148 1.513672,-1.441406 0.487722,-0.426609 0.95564,-0.797831 1.396484,-1.109375 0.440842,-0.311547 0.853868,-0.563834 1.232421,-0.751953 0.37857,-0.188122 0.72256,-0.312807 1.02344,-0.369141 0.15044,-0.02817 0.28984,-0.03955 0.41797,-0.0332 z" />
        <circle
           class="cls-3"
           cx="73.238625"
           cy="30.954166"
           r="6.9636922"
           id="circle16"
           style="fill:#ff2a2a;stroke:none;stroke-width:0.698465" />
      </g>
      <g
         id="g783"
         transform="matrix(1.0455485,0,0,1.0455485,-15.400194,-7.0982304)">
        <text
           class="cls-1"
           transform="translate(166.52,103.81)"
           id="text24"><tspan
             x="0"
             y="0"
             id="tspan22">FTSL</tspan></text>
        <text
           class="cls-2"
           transform="matrix(0.58,0,0,0.58,162.79,145.25)"
           id="text28"><tspan
             x="0"
             y="0"
             id="tspan26">Mutuelle</tspan></text>
      </g>
    </g>
  </g>
</svg>
